<svg width="25" height="25" viewBox="0 0 25 25" fill="none" xmlns="http://www.w3.org/2000/svg">
<rect width="25" height="25" rx="12.5" fill="#855DCD"/>
<path d="M9.14432 7.65942H15.9523V17.3406H14.953V12.906H14.9432C14.8327 11.6804 13.8027 10.7199 12.5483 10.7199C11.294 10.7199 10.2639 11.6804 10.1535 12.906H10.1437V17.3406H9.14432V7.65942Z" fill="white"/>
<path d="M7.33301 9.03352L7.73899 10.4076H8.08251V15.9665C7.91004 15.9665 7.77022 16.1063 7.77022 16.2788V16.6535H7.70776C7.53529 16.6535 7.39547 16.7933 7.39547 16.9658V17.3406H10.8932V16.9658C10.8932 16.7933 10.7533 16.6535 10.5809 16.6535H10.5184V16.2788C10.5184 16.1063 10.3786 15.9665 10.2061 15.9665H9.83136V9.03352H7.33301Z" fill="white"/>
<path d="M15.0155 15.9665C14.843 15.9665 14.7032 16.1063 14.7032 16.2788V16.6535H14.6407C14.4682 16.6535 14.3284 16.7933 14.3284 16.9658V17.3406H17.8261V16.9658C17.8261 16.7933 17.6863 16.6535 17.5138 16.6535H17.4514V16.2788C17.4514 16.1063 17.3115 15.9665 17.1391 15.9665V10.4076H17.4826L17.8886 9.03352H15.3902V15.9665H15.0155Z" fill="white"/>
</svg>
